<?xml version="1.0" encoding="utf-8"?>
<!-- Generator: Adobe Illustrator 19.1.0, SVG Export Plug-In . SVG Version: 6.00 Build 0)  -->
<svg version="1.1" id="Layer_1" xmlns="http://www.w3.org/2000/svg" xmlns:xlink="http://www.w3.org/1999/xlink" x="0px" y="0px"
	 viewBox="-30 32.5 117.5 117.5" style="enable-background:new -30 32.5 117.5 117.5;" xml:space="preserve">
<style type="text/css">
	.st0{fill:#F1F1F2;}
	.st1{fill:#D0D2D3;}
	.st2{fill:none;stroke:#808184;stroke-width:0.5;stroke-miterlimit:10;}
	.st3{fill:none;stroke:#808184;stroke-width:0.5;stroke-miterlimit:10;stroke-dasharray:2.8675,2.8675;}
	.st4{fill:none;stroke:#808184;stroke-width:0.5;stroke-miterlimit:10;stroke-dasharray:2.6116,2.6116;}
	.st5{fill:none;stroke:#808184;stroke-width:0.5;stroke-miterlimit:10;stroke-dasharray:2.6088,2.6088;}
	.st6{fill:none;stroke:#808184;stroke-width:0.5;stroke-miterlimit:10;stroke-dasharray:2.7478,2.7478;}
	.st7{fill:none;stroke:#808184;stroke-width:0.5;stroke-miterlimit:10;stroke-dasharray:2.7485,2.7485;}
	.st8{fill:none;stroke:#808184;stroke-width:0.5;stroke-miterlimit:10;stroke-dasharray:3.0946,3.0946;}
	.st9{fill:none;stroke:#808184;stroke-width:0.5;stroke-miterlimit:10;stroke-dasharray:2.9869,2.9869;}
	.st10{fill:none;stroke:#808184;stroke-width:0.5;stroke-miterlimit:10;stroke-dasharray:2.5553,2.5553;}
	.st11{fill:none;stroke:#808184;stroke-width:0.5;stroke-miterlimit:10;stroke-dasharray:2.5577,2.5577;}
	.st12{fill:none;stroke:#808184;stroke-width:0.5;stroke-miterlimit:10;stroke-dasharray:2.546,2.546;}
	.st13{fill:none;stroke:#808184;stroke-width:0.5;stroke-miterlimit:10;stroke-dasharray:2.5457,2.5457;}
	.st14{fill:none;stroke:#808184;stroke-width:0.5;stroke-miterlimit:10;stroke-dasharray:3.0108,3.0108;}
	.st15{fill:none;stroke:#808184;stroke-width:0.5;stroke-miterlimit:10;stroke-dasharray:2.9947,2.9947;}
	.st16{fill:none;stroke:#808184;stroke-width:0.5;stroke-miterlimit:10;stroke-dasharray:2.015,2.015;}
	.st17{fill:none;stroke:#808184;stroke-width:0.5;stroke-miterlimit:10;stroke-dasharray:2.6686,2.6686;}
	.st18{fill:none;stroke:#808184;stroke-width:0.5;stroke-miterlimit:10;stroke-dasharray:2.6655,2.6655;}
	.st19{fill:none;stroke:#808184;stroke-width:0.5;stroke-miterlimit:10;stroke-dasharray:1.8058,1.8058;}
	.st20{fill:none;stroke:#808184;stroke-width:0.5;stroke-miterlimit:10;stroke-dasharray:2.1282,2.1282;}
	.st21{fill:none;stroke:#808184;stroke-width:0.5;stroke-miterlimit:10;stroke-dasharray:3.7964,3.7964;}
	.st22{fill:none;stroke:#808184;stroke-width:0.5;stroke-miterlimit:10;stroke-dasharray:1.5405,1.5405;}
	.st23{fill:none;stroke:#808184;stroke-width:0.5;stroke-miterlimit:10;stroke-dasharray:2.6237,2.6237;}
	.st24{fill:none;stroke:#808184;stroke-width:0.5;stroke-miterlimit:10;stroke-dasharray:3.2417,3.2417;}
	.st25{fill:none;stroke:#808184;stroke-width:0.5;stroke-miterlimit:10;stroke-dasharray:2.7593,2.7593;}
	.st26{fill:none;stroke:#808184;stroke-width:0.5;stroke-miterlimit:10;stroke-dasharray:3.3696,3.3696;}
	.st27{fill:none;stroke:#808184;stroke-width:0.5;stroke-miterlimit:10;stroke-dasharray:3.3032,3.3032;}
	.st28{fill:none;stroke:#808184;stroke-width:0.5;stroke-miterlimit:10;stroke-dasharray:3.1051,3.1051;}
	.st29{fill:none;stroke:#808184;stroke-width:0.5;stroke-miterlimit:10;stroke-dasharray:3.1943,3.1943;}
	.st30{fill:none;stroke:#808184;stroke-width:0.5;stroke-miterlimit:10;stroke-dasharray:2.7856,2.7856;}
	.st31{fill:none;stroke:#808184;stroke-width:0.5;stroke-miterlimit:10;stroke-dasharray:2.7906,2.7906;}
	.st32{fill:none;stroke:#808184;stroke-width:0.5;stroke-miterlimit:10;stroke-dasharray:1.9548,1.9548;}
	.st33{fill:none;stroke:#808184;stroke-width:0.5;stroke-miterlimit:10;stroke-dasharray:3.1185,3.1185;}
	.st34{fill:none;stroke:#808184;stroke-width:0.5;stroke-miterlimit:10;stroke-dasharray:3.3211,3.3211;}
	.st35{fill:none;stroke:#808184;stroke-width:0.5;stroke-miterlimit:10;stroke-dasharray:3.3804,3.3804;}
	.st36{fill:none;stroke:#808184;stroke-width:0.5;stroke-miterlimit:10;stroke-dasharray:2.7545,2.7545;}
	.st37{fill:none;stroke:#808184;stroke-width:0.5;stroke-miterlimit:10;stroke-dasharray:2.7046,2.7046;}
	.st38{fill:none;stroke:#808184;stroke-width:0.5;stroke-miterlimit:10;stroke-dasharray:2.5956,2.5956;}
	.st39{fill:none;stroke:#808184;stroke-width:0.5;stroke-miterlimit:10;stroke-dasharray:3.4368,3.4368;}
	.st40{fill:none;stroke:#808184;stroke-width:0.5;stroke-miterlimit:10;stroke-dasharray:2.2292,2.2292;}
	.st41{fill:none;stroke:#808184;stroke-width:0.5;stroke-miterlimit:10;stroke-dasharray:2.2293,2.2293;}
	.st42{fill:none;stroke:#808184;stroke-width:0.5;stroke-miterlimit:10;stroke-dasharray:2.3872,2.3872;}
</style>
<rect x="-30" y="32.5" class="st0" width="117.5" height="117.5"/>
<g>
	<path class="st1" d="M24.7,127.7c0.1,0,0.2,0.1,0.3,0.1c-0.1,0.1-0.3,0.1-0.4,0.2L24.7,127.7z M35.6,127.7l0.1,0.4
		c-0.1-0.1-0.3-0.2-0.4-0.2C35.3,127.8,35.4,127.8,35.6,127.7z M-2.5,86L-2.5,86l-0.4,0.1l-0.7,0.3l-0.5,0.5l-0.3,0.7L-4.5,88
		l-4-0.9c-0.3,1,1.2,2.2,3.5,2.7C-4.5,90-4,90-3.4,90l0,0l0.7,0.2H-2l0.1,0l0.3-0.1l0.7-0.3l0.5-0.5L0,88.7L0,88l-0.2-0.7l-0.4-0.6
		l-0.6-0.4L-1.8,86H-2.5z M13.1,79.4l-0.7,0.1l-0.6,0.4L11.7,80l-3,3l-0.4,0.6L8,84.3L8,84.9l-0.2-0.4l-0.6-0.5l-0.7-0.2l-0.7,0H5.7
		l-4.2,1l-0.7,0.3l-0.5,0.5L0,86.4l-0.1,0.7l0.1,0.7l0.4,0.6l0.6,0.4l0.7,0.2l0.7,0h0.1l4.2-1l0.7-0.3l0.5-0.5l0.3-0.7l0.1-0.7
		l-0.1-0.3l0.1,0.1l0.5,0.5l0.6,0.3l0.7,0.1l0.7-0.1l0.6-0.4l0.1-0.1l3-3l0.4-0.6l0.2-0.7L15.3,81L15,80.4l-0.5-0.5l-0.6-0.3
		L13.1,79.4z M52.6,82.5l-0.3-0.7l-0.5-0.5l-0.1-0.1L48,79.1l-0.7-0.3l-0.7,0L45.9,79l-0.6,0.4l-0.4,0.6l-0.1,0.7l0.1,0.7l0.3,0.7
		l0.5,0.5l0.1,0.1l3.7,2.2l0.7,0.3h0.7l0.7-0.2l0.6-0.4l0.4-0.6l0.1-0.7L52.6,82.5z M58,77.3l-0.7,0.2l-0.1,0l-3.9,1.9l-0.6,0.4
		l-0.4,0.6l-0.2,0.7l0.1,0.7l0.3,0.6l0,0.1l0.5,0.5l0.7,0.3l0.7,0.1l0.7-0.2l0.1-0.1l3.8-1.9l0.6-0.4l0.4-0.6l0.2-0.7l-0.1-0.7
		L60,78.2l-0.5-0.5l-0.7-0.3L58,77.3z M5.7,75l-4.3,0.5l-0.7,0.2l-0.6,0.4l-0.4,0.6l-0.2,0.7l0.1,0.7L0,78.8l0.5,0.5l0.7,0.3
		l0.7,0.1H2l4.3-0.5l0.7-0.2l0.6-0.4L7.9,78l0.2-0.7L8,76.6l-0.3-0.7l-0.5-0.5l-0.7-0.3L5.7,75L5.7,75z M-8,74.7
		c-0.7,0.7,0.1,2.5,1.8,4c1.7,1.5,3.7,2.1,4.5,1.3l0.1,0l0.6-0.4l0.4-0.6l0.2-0.7l-0.1-0.7l-0.3-0.7l-0.5-0.5L-2,76L-2.7,76h-0.1
		l-0.3,0l-0.7,0.2l-0.6,0.4l-0.4,0.6l0,0.1L-8,74.7z M65.4,72l-1.9,3.6l-0.7-0.3l-0.7-0.1l-0.7,0.2l-0.1,0l-0.3,0.1L60.5,76
		l-0.4,0.6l-0.2,0.7l0.1,0.7l0.3,0.7l0.5,0.5l0.7,0.3l0.7,0.1l0.7-0.2l0.1,0l0.3-0.1l0.6-0.4l0.4-0.6l0.1-0.5
		c0.3-0.4,0.6-0.9,0.9-1.4C66.3,74.4,66.4,72.4,65.4,72z M3.6,64.4l-0.7,0.1l-0.6,0.4l-0.5,0.6l-0.3,0.7v0.7l0.2,0.7l0.4,0.6
		l0.6,0.4l0.1,0L7,70l0.7,0.1L8.4,70L9,69.6l0.5-0.6L9.6,69l0.1,0.5l0.3,0.7l0.5,0.5l0.7,0.3l0.7,0.1l0.7-0.2l0.1,0l3.8-2l0.6-0.4
		l0.4-0.6l0.2-0.7l-0.1-0.7l-0.3-0.7l-0.5-0.5L16,64.8l-0.7-0.1l-0.7,0.2L14.5,65L10.7,67l-0.6,0.4l-0.3,0.5v-0.3L9.5,67l-0.4-0.6
		L8.5,66l-0.1,0l-4-1.4L3.6,64.4z M56.3,64.3l-0.7,0l-0.7,0.3l-0.6,0.5l-0.1,0.1l-2.5,3.4l-0.3,0.7L51.4,70l0.2,0.7l0.2,0.3
		l-0.6-0.2h-0.1l-4.3-0.5l-0.7,0.1l-0.7,0.3l-0.5,0.5l-0.4,0.7l-0.1,0.7l0.1,0.7l0.4,0.6l0.6,0.4l0.7,0.2l0.1,0l4.2,0.5l0.7,0
		l0.7-0.3l0.5-0.5l0.3-0.7l0.1-0.7l-0.1-0.7l-0.2-0.4l0.6,0.2l0.7,0l0.7-0.3l0.5-0.5l0.1-0.1l2.5-3.5l0.3-0.7l0.1-0.7L58,65.6
		L57.6,65l-0.6-0.4L56.3,64.3z M-4.6,60.4c-0.9,0.5-0.6,2.4,0.7,4.3c0.5,0.7,1.1,1.3,1.7,1.8l0.2,0.2l0.6,0.4l0.1,0l0.2,0.1l0.4,0.1
		c0,0,0.1,0,0.1,0l0.2,0.1l0.7-0.2l0.6-0.4l0.5-0.6l0.3-0.7v-0.7l-0.2-0.7L1,63.5l-0.6-0.4l-0.1,0l-0.2-0.1l-0.7-0.1l-0.7,0.1
		L-2,63.4l-0.2,0.3L-4.6,60.4z M60.7,57l-1,4l0-0.1L59,60.7h-0.7L57.6,61L57,61.5L57,61.5l-0.1,0.1l-0.3,0.7l-0.1,0.7l0.1,0.7
		l0.4,0.6l0.6,0.4l0.7,0.2l0.7,0l0.7-0.3l0.5-0.5l0.1-0.1l0.1-0.1l0.2-0.4c0.4-0.7,0.8-1.5,1-2.5C62.1,59,61.7,57.1,60.7,57z
		 M40.6,53.2l-0.4,0.2l-0.2,0.1l0,0l-0.3,0.2h0l-0.3,0.2l0,0L39,54.1l-0.4,0.2h0l-0.4,0.2h0l0,0l-0.5,0.4l-0.2,0.6l0,0.6l0.3,0.5
		l0.5,0.3l0.6,0.1l0.4-0.1l0.1-0.1h0l0.4-0.2l0,0l0.4-0.2l0,0l0.4-0.2l0,0l0.4-0.2l0.3-0.2l0,0l0.3-0.2l0.4-0.4l0.2-0.6l-0.1-0.6
		l-0.4-0.5l-0.5-0.2H40.6z M51.2,52.6l-0.7,0.2L50,53.3l-0.4,0.6l0,0.1l-1.5,4l-0.1,0.7l0.1,0.7l0.4,0.6l0.5,0.5l0.3,0.1l-0.5-0.1
		l-0.7,0l-0.1,0l-4.1,1.1l-0.7,0.3l-0.5,0.5l-0.3,0.7L42.2,64l0.2,0.7l0.4,0.6l0.6,0.4l0.7,0.2l0.7-0.1H45l4.1-1.2l0.7-0.3l0.5-0.5
		l0.3-0.7l0.1-0.7l-0.2-0.7l-0.4-0.6l-0.5-0.4l0.1,0.1l0.7,0l0.7-0.2l0.6-0.4l0.4-0.6l0-0.1l1.5-4l0.1-0.7L53.6,54l-0.4-0.6
		l-0.5-0.5L52,52.6H51.2z M17.2,51.2l-0.5,0.2l-0.4,0.5l-0.1,0.6l0.1,0.4l0,0l0.1,0.2l0.1,0.2l0.4,0.4l0.6,0.2l0.6-0.1l0.5-0.3
		L18.1,54l0,0.6l0.2,0.6l0.3,0.3l0.3,0.2l0,0l0.3,0.2h0l0.4,0.2l0,0l0.4,0.2v0l0.4,0.2l0,0l0.4,0.2h0l0.1,0.1l0.6,0.1l0.6-0.2
		l0.4-0.4l0.2-0.5l0-0.6l-0.3-0.5l-0.4-0.3l0,0h0l-0.4-0.2h0l-0.4-0.2L21,53.9l0,0l-0.3-0.2h0l-0.3-0.2l0,0l-0.2-0.1l-0.5-0.2
		l-0.6,0.1l-0.5,0.3l0.3-0.4l0.1-0.6L18.6,52l0-0.1l0,0l-0.3-0.4l-0.5-0.3L17.2,51.2z M42.9,51.2l-0.6,0.1l-0.5,0.4l-0.2,0.3l0,0
		l0,0.1l-0.2,0.6l0.1,0.6l0.4,0.5l0.5,0.2H43l0.5-0.3l0.3-0.4l0.1-0.2l0.1-0.2v0l0.1-0.6l-0.2-0.5l-0.4-0.4L42.9,51.2z M28.1,50.5
		L28.1,50.5c-0.7,0.1-1.2,0.6-1.3,1.3l-0.6,3c0,0.1,0,0.3,0,0.4c-0.3,0.2-0.5,0.5-0.7,0.8l-0.1,0l-0.6-0.2h0l-0.3-0.1l-0.6-0.1
		l-0.5,0.2l-0.4,0.4l-0.2,0.6l0.1,0.6l0.3,0.5l0.4,0.2l0.3,0.1v0l0.5,0.2c-0.1,0.5-0.2,0.9-0.2,1.4c0,1.5,0.5,2.8,1.4,3.8
		c-0.4,0.3-0.8,0.6-1.2,1l-0.2-0.1l-0.1,0L20,62.9l-0.7-0.1l-0.7,0.1l-0.6,0.4l-0.5,0.6l-0.3,0.7v0.7l0.2,0.7l0.5,0.6l0.6,0.4l0.1,0
		l2.9,1c-0.3,0.6-0.6,1.2-0.9,1.8l-3.4,0l-0.7,0.1l-0.7,0.4l-0.4,0.6l-0.3,0.7v0.7l0.2,0.5l-0.1-0.2l-0.6-0.4L13.9,72l-0.7,0.1
		l-0.7,0.3l-0.1,0L9,74.9l-0.5,0.5l-0.3,0.7l-0.1,0.7l0.2,0.7l0.4,0.6l0.6,0.4l0.7,0.2l0.7-0.1l0.7-0.3l0.1-0.1l3.5-2.5l0.5-0.5
		l0.3-0.7l0.1-0.7l-0.2-0.6l0.2,0.2l0.6,0.4l0.7,0.1h2.2c-0.1,0.3-0.1,0.6-0.1,1l-3.8,1.8l-0.6,0.4l-0.4,0.6l-0.2,0.7l0.1,0.7
		l0.3,0.7l0.5,0.5l0.7,0.3l0.7,0.1l0.7-0.2l0.1,0l1.7-0.8c0.1,0.9,0.2,1.8,0.3,2.7l-0.5,0.1L18.1,83L18,83.2l-0.1,0.1l0,0.1
		l-0.4,0.4l-0.2,0.2L17.2,84L17,84.2l-0.1,0l-0.3,0.3l0,0L16.4,85l0,0.1L16,85.4L16,85.5l-0.3,0.4l0,0.1l-0.4,0.5l0,0.1l-0.4,0.5
		l0,0.1l-0.4,0.6l0,0.1l-0.3,0.7l-0.1,0.8l0.2,0.8l0.4,0.7l0.6,0.5c0,0,0,0.1,0,0.1l-0.5-0.1l-0.8,0.1l-0.7,0.3l-0.6,0.5l-0.4,0.7
		l-0.1,0.2L12,93.3v0l-0.1,0.4v0l-0.1,0.5v0l-0.1,0.4v0l-0.1,0.5v0l-0.1,0.4v0l-0.2,0.9l0,0.1L11,97.7v0l-0.1,0.7v0.8l0.2,0.7
		l0.4,0.7l0.6,0.5l0.5,0.2c0,0,0,0.1,0,0.1l-0.5,0.1l-0.7,0.3l-0.6,0.5l-0.4,0.7l-0.1,0.7v0.6l0,0.5v0.1l0,0.6v0.1l0.1,0.7v0.1
		l0.1,0.7v0l0.1,0.8v0l0.1,0.8l0,0.1l0.1,0.4v0l0,0.2l0.3,0.7l0.4,0.6l0.7,0.4l0.7,0.3h0.4c0,0.1,0,0.2,0.1,0.2l-0.1,0.1l-0.6,0.5
		l-0.4,0.7l-0.1,0.8l0.1,0.8l0.1,0.2l0.1,0.3l0,0.1l0.2,0.4v0.1l0.2,0.4l0,0.1l0.2,0.4l0,0l0.3,0.6l0,0l0.3,0.6l0,0l0.3,0.6v0
		l0.3,0.6v0l0.3,0.6l0,0l0.5,0.6l0.6,0.4l0.7,0.3h0.8l0.1,0c0.1,0.1,0.1,0.2,0.2,0.2l-0.4,0.6l-0.2,0.7v0.8l0.2,0.7l0.1,0.2l0.2,0.4
		l0.6,0.9v0l0.5,0.8v0l0.5,0.7v0l0.4,0.7l0.4,0.6v0l0.2,0.3l0.5,0.6l0.7,0.4l0.8,0.1l0.8-0.1l0.7-0.3l0,0c-0.1,0.4-0.1,0.8,0,1.1
		l1,5.2c0.2,1.4,1.6,2.4,3,2.1c1.4-0.3,2.3-1.7,2-3.1l-0.4-2.2H31l-0.4,2.2c-0.3,1.4,0.6,2.8,2,3.1c1.4,0.3,2.8-0.7,3-2.1l1-5.2
		c0.1-0.4,0.1-0.8,0-1.2l0.5,0.3L38,130l0.8-0.1l0.7-0.3l0.6-0.5l0.3-0.4l0,0l0.4-0.6l0.4-0.7v0l0.5-0.7l0,0l0.5-0.8v0l0.6-0.9h0
		l0.2-0.4l0.3-0.7l0.1-0.8l-0.1-0.8l-0.4-0.7l-0.1-0.1c0-0.1,0.1-0.1,0.1-0.2l0.7,0l0.7-0.2l0.7-0.4l0.5-0.6l0.1-0.2l0,0l0.3-0.6v0
		l0.3-0.6v0l0.3-0.6v0l0.3-0.6l0,0l0.3-0.6l0,0l0.2-0.4v-0.1l0.2-0.4v-0.1l0.2-0.4l0-0.1l0.1-0.3l0.1-0.8l-0.1-0.8l-0.3-0.7
		l-0.5-0.6l-0.4-0.2c0-0.1,0-0.1,0-0.2h0.2l0.8-0.2l0.7-0.4l0.5-0.6l0.3-0.7l0-0.2l0.1-0.2v0l0.1-0.4v-0.1l0.1-0.8l0,0l0.1-0.8v0
		l0.1-0.7v-0.1l0.1-0.7v-0.1l0-0.6v-0.1l0-0.5V104l-0.1-0.8l-0.3-0.7l-0.5-0.6l-0.7-0.4l-0.7-0.1c0,0,0-0.1,0-0.1l0.3-0.1l0.7-0.4
		l0.5-0.6l0.3-0.7l0.1-0.8l0-0.2l-0.1-0.7v0l-0.2-0.9l0-0.1l-0.2-0.9l0,0l-0.1-0.4l0,0l-0.1-0.5l0,0l-0.1-0.4v0l-0.1-0.5l0,0
		l-0.1-0.4v0l-0.1-0.3l-0.4-0.7l-0.5-0.6l-0.7-0.4l-0.7-0.1L45,91.3c0,0,0,0,0,0c0,0,0-0.1,0-0.1l0.4-0.3l0.5-0.7l0.2-0.7v-0.8
		L45.9,88l-0.1-0.2l0-0.1l-0.4-0.6l0-0.1L45,86.6L45,86.5L44.6,86l0-0.1l-0.4-0.4l0-0.1L43.9,85L43.9,85l-0.3-0.4l-0.1,0l-0.2-0.3
		l-0.1,0L43,84l0-0.1l-0.2-0.2l0-0.1l-0.4-0.4l-0.6-0.4l-0.7-0.2c0.1-0.8,0.2-1.5,0.3-2.3l1,0.5l0.7,0.2l0.7-0.1l0.7-0.3l0.5-0.5
		l0.3-0.7l0.1-0.7l-0.2-0.7l-0.4-0.6l-0.6-0.4l-0.1-0.1l-3-1.4c-0.1-0.4-0.1-0.9-0.2-1.3h1.4L43,74l0.6-0.4l0.5-0.6l0.3-0.7l0-0.7
		l-0.2-0.7l-0.4-0.6L43.1,70l-0.7-0.2h-0.1l-2.7,0c-0.3-0.7-0.7-1.3-1-2L41,67l0.6-0.4l0.5-0.6l0.3-0.7l0-0.7L42.2,64l-0.4-0.6
		L41.1,63l-0.7-0.2l-0.7,0.1l-0.1,0l-3.9,1.3c-0.3-0.3-0.6-0.5-1-0.8c0.9-1,1.4-2.4,1.4-3.8c0-0.5-0.1-1-0.2-1.4l0.5-0.2v0l0.3-0.1
		l0.5-0.3l0.3-0.5l0-0.6L37.3,56l-0.4-0.4l-0.6-0.1l-0.4,0.1l-0.3,0.1h0l-0.6,0.2l-0.1,0c-0.2-0.3-0.5-0.5-0.7-0.8
		c0-0.1,0-0.3,0-0.4l-0.6-3c-0.1-0.7-0.8-1.3-1.5-1.3c-1,0-1.7,0.9-1.5,1.9l0.3,1.3c-0.2,0-0.4,0-0.6,0c-0.2,0-0.4,0-0.5,0l0.3-1.3
		c0.2-1-0.6-1.9-1.6-1.9C28.2,50.5,28.2,50.5,28.1,50.5z M52.5,44.4c-0.1,0-0.1,0-0.2,0l0.8,4.1l-0.1,0.1h-0.3L52,48.8l-0.6,0.5
		l-0.4,0.6l0,0.1h0l-0.1,0.7l0.1,0.7l0.4,0.6l0.6,0.5l0.7,0.3l0.7,0l0.7-0.2l0.6-0.4l0.4-0.6l0-0.1v0l0.1-0.7l-0.1-0.6
		c0-0.7,0-1.4-0.1-2.2C54.5,45.9,53.5,44.3,52.5,44.4z"/>
	<g>
		<path class="st2" d="M24.7,127.7c0.1,0,0.2,0.1,0.3,0.1c-0.1,0.1-0.3,0.1-0.4,0.2L24.7,127.7z"/>
		<path class="st2" d="M35.6,127.7l0.1,0.4c-0.1-0.1-0.3-0.2-0.4-0.2C35.3,127.8,35.4,127.8,35.6,127.7z"/>
		<g>
			<polyline class="st2" points="-3.9,86.7 -4.1,86.9 -4.5,87.6 -4.5,88 -6,87.7 			"/>
			<path class="st2" d="M-7.1,87.5l-1.5-0.3c-0.1,0.4,0.1,0.9,0.5,1.3"/>
			<path class="st2" d="M-4.9,89.9c0.5,0.1,1,0.1,1.5,0.1l0,0l0.7,0.2H-2l0,0"/>
			<polyline class="st3" points="0,88.4 0,88 -0.1,87.3 -0.5,86.6 -1.1,86.2 -1.8,86 -2.5,86 -2.6,86 -2.7,86 			"/>
		</g>
		<g>
			<polyline class="st2" points="8.3,83.5 8.2,83.6 8,84.3 8,84.9 7.8,84.6 7.2,84.1 6.9,84 			"/>
			<polyline class="st4" points="4.4,84.2 1.5,85 0.8,85.3 0.3,85.8 0,86.4 -0.1,87.2 0.1,87.9 0.5,88.5 1.1,88.9 1.7,89.2 
				2.5,89.1 2.6,89.1 6.7,88.1 7.1,87.9 			"/>
			<polyline class="st2" points="8.1,87 8.3,86.6 8.3,85.9 8.3,85.6 8.3,85.7 8.9,86.2 9.4,86.5 			"/>
			<polyline class="st5" points="11.8,85.9 14.7,83.1 15.1,82.5 15.3,81.8 15.3,81 15,80.4 14.5,79.8 13.8,79.5 13.1,79.4 
				12.4,79.6 11.7,79.9 11.7,80 9.1,82.5 			"/>
		</g>
		<polygon class="st6" points="52.6,82.5 52.2,81.8 51.7,81.3 51.6,81.3 48,79.1 47.3,78.8 46.5,78.8 45.9,79 45.3,79.5 44.9,80.1 
			44.7,80.8 44.8,81.5 45.1,82.2 45.7,82.7 45.7,82.8 49.4,85 50.1,85.2 50.8,85.2 51.5,85 52.1,84.6 52.5,83.9 52.7,83.2 		"/>
		<polygon class="st7" points="58,77.3 57.3,77.5 57.3,77.5 53.4,79.4 52.8,79.8 52.4,80.4 52.2,81.1 52.3,81.9 52.6,82.5 
			52.6,82.5 53.1,83.1 53.8,83.4 54.5,83.5 55.2,83.3 55.3,83.2 59.1,81.3 59.7,80.9 60.2,80.3 60.3,79.6 60.3,78.9 60,78.2 
			59.4,77.7 58.8,77.3 		"/>
		<polygon class="st7" points="5.7,75 1.5,75.5 0.8,75.7 0.2,76.1 -0.2,76.7 -0.4,77.5 -0.3,78.2 0,78.8 0.5,79.4 1.1,79.7 
			1.9,79.8 2,79.8 6.2,79.3 6.9,79.1 7.5,78.7 7.9,78 8.1,77.3 8,76.6 7.7,75.9 7.2,75.4 6.6,75.1 5.8,75 		"/>
		<g>
			<path class="st2" d="M-6.8,75.7l-1.1-1c-0.3,0.3-0.3,0.8-0.1,1.4"/>
			<path class="st8" d="M-6.3,78.6c0,0,0.1,0.1,0.1,0.1c1.7,1.5,3.7,2.1,4.5,1.3l0.1,0l0.6-0.4l0.4-0.6l0.2-0.7l-0.1-0.7l-0.3-0.7
				l-0.5-0.5L-2,76l-0.4,0"/>
			<polyline class="st2" points="-3.9,76.3 -4.4,76.7 -4.8,77.3 -4.8,77.4 -6,76.4 			"/>
		</g>
		<g>
			<path class="st2" d="M66.1,73.3c0-0.6-0.3-1.1-0.7-1.3l-0.7,1.3"/>
			<polyline class="st2" points="64.2,74.3 63.5,75.6 62.9,75.3 62.1,75.3 62.1,75.3 			"/>
			<path class="st9" d="M60,77.1l-0.1,0.3l0.1,0.7l0.3,0.7l0.5,0.5l0.7,0.3l0.7,0.1l0.7-0.2l0.1,0l0.3-0.1l0.6-0.4l0.4-0.6l0.1-0.5
				c0.3-0.4,0.6-0.9,0.9-1.4c0.3-0.6,0.5-1.1,0.6-1.7"/>
		</g>
		<g>
			<polyline class="st2" points="8.5,69.9 9,69.6 9.5,69.1 9.6,69 9.6,69.5 9.9,70.1 10.1,70.3 			"/>
			<polyline class="st10" points="12.5,70.8 12.6,70.8 12.6,70.8 16.5,68.8 17.1,68.4 17.5,67.8 17.6,67 17.5,66.3 17.2,65.6 
				16.7,65.1 16,64.8 15.3,64.8 14.6,64.9 14.5,65 12,66.3 			"/>
			<polyline class="st2" points="10.8,66.9 10.7,67 10.1,67.4 9.8,67.9 9.8,67.6 9.5,67 9.2,66.6 			"/>
			<polyline class="st11" points="7,65.5 4.3,64.6 3.6,64.4 2.9,64.6 2.3,64.9 1.8,65.5 1.5,66.2 1.5,66.9 1.7,67.6 2.2,68.2 
				2.8,68.6 2.9,68.6 7,70 7.2,70.1 			"/>
		</g>
		<g>
			<polyline class="st2" points="51.4,69.6 51.4,70 51.5,70.7 51.7,71 51.1,70.8 51.1,70.8 50.3,70.7 			"/>
			<polyline class="st12" points="47.8,70.4 46.8,70.3 46.1,70.3 45.4,70.6 44.8,71.1 44.5,71.7 44.4,72.5 44.5,73.2 44.9,73.8 
				45.5,74.3 46.2,74.5 46.3,74.5 50.5,75 51.3,75 51.9,74.7 52.4,74.4 			"/>
			<polyline class="st2" points="52.9,73.2 52.9,72.9 52.8,72.1 52.6,71.8 53.2,72 53.9,72 54,71.9 			"/>
			<polyline class="st13" points="55.9,70.3 57.8,67.7 58.1,67 58.2,66.3 58,65.6 57.6,65 57.1,64.5 56.3,64.3 55.6,64.3 54.9,64.6 
				54.4,65.1 54.3,65.2 51.9,68.4 			"/>
		</g>
		<g>
			<path class="st2" d="M-3.7,61.6l-0.9-1.2C-5,60.6-5.1,61-5.1,61.7"/>
			<path class="st14" d="M-4,64.5c0,0.1,0.1,0.1,0.1,0.2c0.5,0.7,1.1,1.3,1.7,1.8l0.2,0.2l0.6,0.4l0.1,0l0.2,0.1l0.4,0.1
				c0,0,0.1,0,0.1,0l0.2,0.1l0.7-0.2l0.6-0.4l0.5-0.6l0.3-0.7v-0.7l-0.2-0.7L1,63.5l-0.5-0.3"/>
			<polyline class="st2" points="-1,63 -1.4,63.1 -2,63.4 -2.3,63.7 -3.1,62.5 			"/>
		</g>
		<g>
			<path class="st2" d="M61.7,58c-0.2-0.6-0.5-1-1-1l-0.3,1.5"/>
			<polyline class="st2" points="60.1,59.5 59.7,61 59.7,60.9 59,60.7 58.3,60.7 58.2,60.7 			"/>
			<path class="st15" d="M56.5,62.9l0,0.2l0.1,0.7l0.4,0.6l0.6,0.4l0.7,0.2l0.7,0l0.7-0.3l0.5-0.5l0.1-0.1l0.1-0.1l0.2-0.4
				c0.4-0.7,0.8-1.5,1-2.5c0.1-0.6,0.2-1.2,0.2-1.7"/>
		</g>
		<g>
			<polyline class="st2" points="39.5,53.8 39.3,53.9 39.3,53.9 39,54.1 38.6,54.3 38.6,54.3 38.2,54.5 38.1,54.5 38.1,54.6 
				37.6,54.9 37.4,55.5 37.4,55.7 			"/>
			<polyline class="st2" points="37.9,56.7 38.2,56.9 38.8,57 39.2,56.9 39.3,56.8 39.3,56.8 39.8,56.6 39.8,56.6 40.2,56.4 
				40.2,56.3 40.6,56.1 40.6,56.1 			"/>
			<polyline class="st16" points="42.1,54.8 42.2,54.5 42.1,53.9 41.7,53.4 41.2,53.2 40.6,53.2 40.3,53.3 			"/>
		</g>
		<g>
			<polyline class="st2" points="48.2,59.7 48.4,60.1 49,60.6 49.2,60.7 48.8,60.5 48,60.6 47.9,60.6 47.8,60.6 			"/>
			<polyline class="st17" points="45.2,61.3 43.8,61.7 43.1,62.1 42.6,62.6 42.3,63.2 42.2,64 42.4,64.7 42.8,65.3 43.4,65.7 
				44.1,65.9 44.9,65.9 45,65.9 49.1,64.7 49.8,64.4 50.3,63.9 50.6,63.2 50.6,63.2 			"/>
			<polyline class="st2" points="50.5,61.9 50.5,61.8 50.1,61.2 49.5,60.8 49.6,60.8 50.4,60.9 51,60.7 			"/>
			<polyline class="st18" points="52.4,58.5 53.6,55.4 53.7,54.7 53.6,54 53.2,53.4 52.7,52.9 52,52.6 51.2,52.6 50.5,52.8 50,53.3 
				49.6,53.9 49.5,54 48.1,58 48,58.4 			"/>
		</g>
		<g>
			<polyline class="st2" points="17,53.8 17.4,53.9 17.9,53.9 18.4,53.6 18.1,54 18.1,54.6 18.2,55 			"/>
			<polyline class="st2" points="18.8,55.6 18.9,55.7 18.9,55.7 19.2,55.9 19.3,55.9 19.6,56.1 19.7,56.1 20.1,56.3 20.1,56.4 
				20.5,56.6 20.5,56.6 20.9,56.8 21,56.8 21,56.9 21.4,57 			"/>
			<polyline class="st2" points="22.8,55.7 22.8,55.3 22.5,54.8 22.1,54.6 22.1,54.5 22.1,54.5 21.7,54.3 21.7,54.3 21.3,54.1 
				21,53.9 20.9,53.9 20.8,53.8 			"/>
			<polyline class="st2" points="19.9,53.3 19.5,53.2 18.9,53.2 18.5,53.5 18.7,53.1 18.8,52.5 18.7,52.1 			"/>
			<polyline class="st19" points="17.3,51.2 17.2,51.2 16.6,51.4 16.3,51.9 16.1,52.4 16.2,52.9 16.2,52.9 16.3,53.1 16.4,53.2 			
				"/>
		</g>
		<polygon class="st20" points="42.9,51.2 42.3,51.2 41.9,51.6 41.7,51.9 41.6,52 41.6,52 41.4,52.6 41.6,53.2 41.9,53.7 42.5,53.9 
			43,53.9 43.6,53.6 43.9,53.3 44,53.1 44,52.9 44,52.9 44.1,52.3 43.9,51.7 43.5,51.3 		"/>
		<g>
			<path class="st2" d="M26.4,53.7l-0.2,1.1c0,0.1,0,0.3,0,0.4c-0.3,0.2-0.5,0.5-0.7,0.8l-0.1,0l-0.6-0.2h0l-0.3-0.1L24,55.5"/>
			<path class="st2" d="M22.8,57.1l0,0.1l0.3,0.5l0.4,0.2l0.3,0.1v0l0.5,0.2c-0.1,0.5-0.2,0.9-0.2,1.4c0,0,0,0.1,0,0.1"/>
			<path class="st2" d="M24.7,62.2c0.2,0.5,0.5,0.9,0.8,1.3c-0.4,0.3-0.8,0.6-1.2,1l-0.2-0.1l-0.1,0l-1.1-0.4"/>
			<polyline class="st21" points="19.3,62.8 19.3,62.8 18.6,62.9 17.9,63.3 17.5,63.9 17.2,64.6 17.2,65.3 17.4,66 17.9,66.6 
				18.3,66.8 			"/>
			<path class="st2" d="M20.1,67.5l1.4,0.5c-0.3,0.6-0.6,1.2-0.9,1.8l-1.5,0"/>
			<polyline class="st22" points="17.6,69.8 17.3,69.8 16.6,69.9 15.9,70.3 15.6,70.7 			"/>
			<polyline class="st2" points="15.3,71.3 15.2,71.6 15.2,72.3 15.3,72.8 15.2,72.6 14.6,72.2 14.1,72 			"/>
			<polyline class="st23" points="11.7,72.9 9,74.9 8.5,75.4 8.2,76.1 8.1,76.8 8.3,77.6 8.7,78.1 9.3,78.6 10,78.8 10.7,78.7 
				11.4,78.4 11.5,78.4 15,75.9 15,75.8 			"/>
			<polyline class="st2" points="15.7,74.8 15.8,74.7 15.8,73.9 15.7,73.3 15.9,73.6 16.5,73.9 16.9,74 			"/>
			<path class="st2" d="M17.9,74.1h1.5c-0.1,0.3-0.1,0.6-0.1,1l-1.4,0.6"/>
			<polyline class="st24" points="15,77.2 14.9,77.3 14.5,77.9 14.3,78.5 14.3,79.3 14.6,79.9 15.2,80.5 15.8,80.8 16.1,80.8 			"/>
			<path class="st2" d="M17.7,80.5l1.4-0.6c0.1,0.9,0.2,1.8,0.3,2.7l-0.5,0.1L18.1,83L18,83.2"/>
			<polyline class="st25" points="16.2,85.2 16,85.4 16,85.5 15.7,85.9 15.6,86 15.3,86.5 15.2,86.6 14.9,87.1 14.9,87.2 14.5,87.8 
				14.5,87.8 14.2,88.5 14.2,88.8 			"/>
			<path class="st2" d="M14.3,90.1l0.4,0.6l0.6,0.5c0,0,0,0.1,0,0.1l-0.5-0.1l-0.8,0.1l-0.1,0.1"/>
			<polyline class="st26" points="11.8,94 11.7,94.3 11.7,94.3 11.6,94.8 11.6,94.8 11.5,95.3 11.5,95.3 11.4,95.8 11.4,95.8 
				11.2,96.7 11.2,96.8 11,97.7 11,97.7 10.9,98.4 10.9,98.9 			"/>
			<path class="st2" d="M11.4,100.4l0.1,0.1l0.6,0.5l0.5,0.2c0,0,0,0.1,0,0.1l-0.5,0.1l-0.7,0.3l-0.1,0.1"/>
			<polyline class="st27" points="10.3,104.9 10.3,104.9 10.3,105.5 10.3,105.6 10.4,106.3 10.4,106.3 10.5,107.1 10.5,107.1 
				10.6,107.9 10.6,107.9 10.7,108.8 10.7,108.8 10.8,109.2 10.8,109.3 10.8,109.5 10.9,109.8 			"/>
			<path class="st2" d="M11.9,111.1l0.3,0.2l0.7,0.3h0.4c0,0.1,0,0.2,0.1,0.2l-0.1,0.1l-0.6,0.5l-0.3,0.5"/>
			<polyline class="st28" points="12.6,115.9 12.7,116.2 12.8,116.2 13,116.7 13,116.7 13.3,117.3 13.3,117.4 13.6,118 13.6,118 
				13.9,118.6 13.9,118.6 14.2,119.2 14.2,119.2 14.5,119.8 14.6,119.9 14.7,120 			"/>
			<path class="st2" d="M15.8,121l0.6,0.2h0.8l0.1,0c0.1,0.1,0.1,0.2,0.2,0.2l-0.4,0.6l-0.2,0.7v0"/>
			<polyline class="st29" points="17.9,125.7 18,125.8 18,125.8 18.5,126.6 18.5,126.6 19,127.4 19,127.4 19.5,128.1 19.9,128.6 
				19.9,128.7 20.1,128.9 20.6,129.5 20.7,129.5 			"/>
			<path class="st2" d="M22.2,130l0.7-0.1l0.7-0.3l0,0c-0.1,0.4-0.1,0.8,0,1.1l0.1,0.4"/>
			<path class="st30" d="M24.2,133.8l0.4,2.1c0.2,1.4,1.6,2.4,3,2.1c1.2-0.2,2-1.3,2.1-2.4"/>
			<polyline class="st2" points="29.5,134.2 29.2,132.8 31,132.8 30.7,134.2 			"/>
			<path class="st31" d="M31,136.9c0.4,0.6,0.9,1,1.7,1.1c1.4,0.3,2.8-0.7,3-2.1l0.7-3.5"/>
			<path class="st2" d="M36.6,131l0.1-0.3c0.1-0.4,0.1-0.8,0-1.2l0.5,0.3L38,130l0.1,0"/>
			<polyline class="st32" points="39.8,129.3 40.1,129.1 40.4,128.7 40.4,128.6 40.8,128.1 41.2,127.4 41.2,127.4 41.5,126.9 			"/>
			<polyline class="st2" points="42.1,126.1 42.3,125.8 42.3,125.8 42.8,124.8 42.9,124.8 43.1,124.5 43.4,123.8 43.4,123.4 			"/>
			<path class="st2" d="M43.4,122.7l-0.1-0.5l-0.4-0.7l-0.1-0.1c0-0.1,0.1-0.1,0.1-0.2l0.7,0l0.7-0.2l0,0"/>
			<polyline class="st33" points="46.3,118.7 46.4,118.6 46.4,118.6 46.7,118 46.7,118 47,117.4 47,117.3 47.3,116.7 47.3,116.7 
				47.5,116.2 47.5,116.2 47.7,115.7 47.7,115.7 47.9,115.2 47.9,115.2 48,114.9 48.1,114.4 			"/>
			<path class="st2" d="M47.9,112.9l-0.1-0.3l-0.5-0.6l-0.4-0.2c0-0.1,0-0.1,0-0.2h0.2l0.8-0.2l0.4-0.3"/>
			<polyline class="st34" points="49.6,108.2 49.6,107.9 49.7,107.9 49.8,107.1 49.8,107.1 49.9,106.3 49.9,106.3 49.9,105.6 
				49.9,105.5 49.9,104.9 49.9,104.9 50,104.3 50,104 49.9,103.3 			"/>
			<path class="st2" d="M49,101.9l-0.7-0.4l-0.7-0.1c0,0,0-0.1,0-0.1l0.3-0.1l0.7-0.4l0.2-0.3"/>
			<polyline class="st35" points="49.2,97.2 49.1,96.8 49.1,96.7 48.9,95.8 48.9,95.8 48.8,95.3 48.8,95.3 48.7,94.8 48.6,94.8 
				48.5,94.3 48.5,94.3 48.4,93.8 48.4,93.8 48.2,93.4 48.2,93.3 48.2,93.1 47.8,92.4 			"/>
			<path class="st2" d="M46.5,91.4l-0.7-0.1L45,91.3c0,0,0,0,0,0c0,0,0-0.1,0-0.1l0.4-0.3l0.5-0.7l0.1-0.2"/>
			<polyline class="st36" points="45.6,87.5 45.4,87.2 45.4,87.1 45,86.6 45,86.5 44.6,86 44.6,85.9 44.2,85.5 44.2,85.4 43.9,85 
				43.9,85 43.6,84.6 43.5,84.6 43.3,84.3 43.2,84.2 43.2,84.2 			"/>
			<path class="st2" d="M42.2,83.2l-0.6-0.4l-0.7-0.2c0.1-0.8,0.2-1.5,0.3-2.3l1,0.5l0.4,0.1"/>
			<polyline class="st37" points="44.9,79.9 45.2,79.4 45.3,78.7 45.1,77.9 44.7,77.3 44.2,76.9 44.1,76.8 43.7,76.6 			"/>
			<path class="st2" d="M42.4,76l-1.4-0.6c-0.1-0.4-0.1-0.9-0.2-1.3h1.4l0.1,0"/>
			<polyline class="st38" points="44.3,72.6 44.4,72.4 44.4,71.6 44.2,70.9 43.7,70.4 43.1,70 42.4,69.8 42.4,69.8 			"/>
			<path class="st2" d="M41.1,69.8l-1.5,0c-0.3-0.7-0.7-1.3-1-2l1.4-0.5"/>
			<polyline class="st39" points="42.4,65.2 42.4,64.7 42.2,64 41.7,63.4 41.1,63 40.4,62.8 39.6,62.9 39.6,62.9 38.7,63.2 			"/>
			<path class="st2" d="M37.1,63.8l-1.4,0.5c-0.3-0.3-0.6-0.5-1-0.8c0.3-0.4,0.6-0.8,0.8-1.3"/>
			<path class="st2" d="M36.1,59.7C36.1,59.7,36.1,59.7,36.1,59.7c0-0.6-0.1-1-0.2-1.5l0.5-0.2v0l0.3-0.1l0.5-0.3l0.3-0.5"/>
			<path class="st2" d="M36.2,55.5l-0.4,0.1l-0.3,0.1h0l-0.6,0.2l-0.1,0c-0.2-0.3-0.5-0.5-0.7-0.8c0-0.1,0-0.3,0-0.4l-0.2-1.1"/>
			<path class="st40" d="M33.4,51.5c-0.2-0.6-0.8-1-1.5-1c-0.5,0-1,0.3-1.3,0.7"/>
			<path class="st2" d="M30.4,52.2c0,0,0,0.1,0,0.1l0.3,1.3c-0.2,0-0.4,0-0.6,0c-0.2,0-0.4,0-0.5,0l0.3-1.3c0,0,0-0.1,0-0.1"/>
			<path class="st41" d="M28.7,50.5c-0.1,0-0.3,0-0.4,0c0,0-0.1,0-0.1,0c-0.7,0.1-1.2,0.6-1.3,1.3l-0.2,0.8"/>
		</g>
		<g>
			<path class="st2" d="M53.6,45c-0.4-0.4-0.8-0.6-1.1-0.6c-0.1,0-0.1,0-0.2,0l0.3,1.5"/>
			<polyline class="st2" points="52.8,47 53.1,48.5 53.1,48.6 52.7,48.6 52,48.8 51.4,49.2 51.1,49.8 51,49.9 51,49.9 50.9,50.7 
				51,51.4 51,51.4 			"/>
			<path class="st42" d="M52.8,52.8l0.5,0l0.7-0.2l0.6-0.4l0.4-0.6l0-0.1v0l0.1-0.7l-0.1-0.6c0-0.7,0-1.4-0.1-2.2
				c-0.1-0.7-0.4-1.4-0.6-2"/>
		</g>
	</g>
</g>
</svg>
