<?xml version="1.0" encoding="utf-8"?>
<!-- Generator: Adobe Illustrator 19.1.0, SVG Export Plug-In . SVG Version: 6.00 Build 0)  -->
<svg version="1.1" id="Layer_1" xmlns="http://www.w3.org/2000/svg" xmlns:xlink="http://www.w3.org/1999/xlink" x="0px" y="0px"
	 viewBox="-30 32.5 117.5 117.5" style="enable-background:new -30 32.5 117.5 117.5;" xml:space="preserve">
<style type="text/css">
	.st0{fill:#F1F1F2;}
	.st1{fill:#D0D2D3;stroke:#808184;stroke-width:0.5;stroke-miterlimit:10;stroke-dasharray:3,3;}
</style>
<path class="st1" d="M77.3,124.6l-6.1-6c-7.2-6-6.4-14.5-6.5-15.4s-0.1-4.4,0.2-5.6c0.3-1.2-0.1-2.5-0.1-2.5
	c2.2-8.8,9.1-6.4,9.1-6.4c2.8,0.3,2.9-2.4,2.9-2.4c2-1,1.5-3,1.5-3l-3.4-3.6c-1.4-3.6-5.3-4.5-5.3-4.5c0.6-3.6-1.3-5.9-1.3-5.9
	c-0.3,1.1-4.4,5.4-4.7,5.5c-4.8,1.2-3.2,2-6.3,4.1c-3,2.2-9.5,4.8-12.3,3.2c-2.8-1.6-26.4-3.6-36.6-3.6c-3,0-5.4,0.6-7.2,1.5
	c-1.7-1.3-3.8-4-5.4-7.8c-2.3-5.4-2.6-11-0.8-14.7c1-2,2.1-3.2,3.3-3.4c1.8-0.4,4,1.2,4.7,1.8c1.2,1.1,3.1,1,4.2-0.2
	c1.1-1.2,1-3.1-0.2-4.2c-0.5-0.4-4.7-4.2-9.8-3.3c-3.2,0.6-5.7,2.9-7.5,6.7c-2.5,5.3-2.3,12.5,0.8,19.7c1.4,3.2,3.5,6.9,6.2,9.3
	c-0.7,1-1,1.7-1,1.7c-0.9,2.1-3.3,6.7-2.4,10.9s-1.8,6.2-2.3,6.7s-5.6,3.5-5.6,3.5l-4.2,14.9c-0.7,2.8,3.1,4.5,3.1,4.5
	c1.4-0.2,1.5-4.7,1.5-4.7l3.3-7.8L1.6,109c0,0,0,5.3-0.2,6.3s-0.7,2.6-0.7,2.6c0.5,3.4,8.9,11.3,8.9,11.3H16v-2.1
	c-0.5-2.3-3.7-1.2-3.7-1.2l-4.7-7.1c5-3.9,7-10.5,7-10.5c2.3,2,13.6-1.7,13.6-1.7l6.8,0.7L33,123c-0.6,3.8,0.3,5.2,0.3,5.2h3
	c2.2,0,3.6,0.3,3.6-2c0-2.2-3-1.9-3-1.9l7.4-14.7c7-4.3,11.5,2,11.5,2l0.4,2.3c2.7,4,17.8,14.3,17.8,14.3h7.4v-2.3
	C80.3,123.7,77.3,124.6,77.3,124.6z"/>
</svg>
