<?xml version="1.0" encoding="utf-8"?>
<!-- Generator: Adobe Illustrator 19.1.0, SVG Export Plug-In . SVG Version: 6.00 Build 0)  -->
<svg version="1.1" id="Layer_1" xmlns="http://www.w3.org/2000/svg" xmlns:xlink="http://www.w3.org/1999/xlink" x="0px" y="0px"
	 viewBox="-30 32.5 117.5 117.5" style="enable-background:new -30 32.5 117.5 117.5;" xml:space="preserve">
<style type="text/css">
	.st0{fill:#F1F1F2;}
	.st1{fill:#D0D2D3;stroke:#808184;stroke-width:0.5;stroke-miterlimit:10;stroke-dasharray:3,3;}
</style>
<rect x="-30" y="32.5" class="st0" width="117.5" height="117.5"/>
<path class="st1" d="M77.6,74.1C77.4,74.5,75.2,78,73,79c-2.2,0.9-5.2-0.2-6-1.4c0,0.4-0.2,1.5-0.6,2.4l0.4,0.2l-0.4,5.3
	c-0.1,1.9-2,3.3-3.9,2.8c-0.3-0.1-0.5-0.1-0.8-0.2c-1.1-0.4-2.1-0.3-3-0.1c-0.1,0.3-0.2,0.5-0.4,0.8c-2.9,6.5-1.4,11.3-8.1,15.6
	c-6.8,4.4-6.1,6.7-6.4,8.3s1,0.7-0.6,6s-0.7,8.1,0.3,9.9c0.6,1,1.9,1.7,2.9,2.6c0.5,0.5,0.5,1.2,0.2,1.7h-10c-0.6-0.4-1-0.9-1.3-1.6
	c-0.1-0.3-0.2-0.6-0.3-0.9c-1.3-4.1-2-4.7-0.5-11.5s-0.5-9.3-1-10c-0.3-0.7-7.1,2.9-20-6.1c0.2,0.1-0.5,6.4-6.2,11.5
	c-5.7,5.1-5.1,12.4-2.6,13.8c2,1.1,4.1,2.6,3.8,4.8H1l-0.5-1c0,0-2.4-6.1-3.3-7.3c-0.9-1.3-1.1-3.9,0.2-6.5c1.4-2.6,2.2-5.2,1.4-6.7
	c0.1,0.5-2.2,3.2-5.5,5.9c-3.3,2.6-5.4,1.4-7,6.5c-1.6,5,2.1,5.4,2.2,9.1h-8.4c-1.6-1.3-1.1-3.5,0.1-5.6c1.4-2.5,2.6-5.7,1.6-6.3
	c-0.8-0.3-0.8-1.5,1.7-3.2s8.7-10.3,8.4-18.7s1-12.6,1-12.6s-1.8,1.7-2.2-0.5c-0.3-2.2,6.9-6.2,10.9-7s16.1-2,21.7-0.6
	c5.6,1.4,25.9-5.5,27.9-10.4c2-4.9,4.6-7.3,6.7-6.4c2.1,0.9,4.1-1,7,1.2c2.9,2.2,4.9-1.3,5.1,3.6c0,0,0.8,1.7,3.2,2.6
	C75.4,69.7,80.4,73.6,77.6,74.1"/>
</svg>
