<?xml version="1.0" encoding="utf-8"?>
<!-- Generator: Adobe Illustrator 19.1.0, SVG Export Plug-In . SVG Version: 6.00 Build 0)  -->
<svg version="1.1" id="Layer_1" xmlns="http://www.w3.org/2000/svg" xmlns:xlink="http://www.w3.org/1999/xlink" x="0px" y="0px"
	 viewBox="-30 32.5 117.5 117.5" style="enable-background:new -30 32.5 117.5 117.5;" xml:space="preserve">
<style type="text/css">
	.st0{fill:#F1F1F2;}
	.st1{fill:#D0D2D3;}
	.st2{fill:none;stroke:#808184;stroke-width:0.5;stroke-miterlimit:10;stroke-dasharray:3.0089,3.0089;}
</style>
<rect x="-30" y="32.5" class="st0" width="117.5" height="117.5"/>
<g>
	<path class="st1" d="M52.3,55.8c-1.4-1.9-1.8-4-5.5-4.6c-3.7-0.6-4.6,0.7-6.1,1.5c-1.5,0.7-4.1,3.5-4.5,4.7
		c-0.3,1.2-0.7,6.8-1.6,10.2c-0.8,3.4-2.3,9.3-2.7,10.4c-0.4,1-0.8,2.3-3.3,2.9c-2.5,0.6-3.4,1.2-6.2,1.3c-2.9,0.1-5.5,1.7-7.8,2.9
		c-2.3,1.3-3.5,2-5.3,3.1c-1.8,1.1-4,2.7-5,3.5c-1,0.8-0.7,1.1-2.7,1.2c-1.9,0.1-3.9,0.4-4.7,0c-0.8-0.4-3-1.9-3.5-2.8
		C-7,89-7.1,89.8-6.9,90.5c0.2,0.7-0.5,0.2-1.2-0.4c-0.7-0.6-0.4,0.8,0,1.6c0.4,0.8-0.2,0.8-0.9,0.1c-0.7-0.7-0.7,0.3-0.3,0.8
		c0.4,0.5-0.2,0.7-0.5,0.3c-0.4-0.4-0.2,0.6,0.4,1.2c0.6,0.6-0.4,0.3-0.8,0c-0.4-0.3,0.2,1,0.7,1.6c0.5,0.6-0.7,0.5-1.2,0
		c-0.4-0.5,0,1.4,0.9,2c0.9,0.7,2.8,1.7,3.5,2.4c0.6,0.7,1.4,2,2.6,3.4c1.2,1.4,1,1.7,1.5,3.4c0.5,1.7,1,3,2.7,3.8
		c1.7,0.8,3.9,1,4,1.6c0.1,0.6,0.3,1.8-0.4,3.2s-0.6,2.3-0.9,3.4c-0.3,1.1-0.2,2,0.5,2.7c0.7,0.7,0.4,0.2,0.8,1.4
		c0.5,1.2,1.6,1.9,3,2.1c1.4,0.3,3,0.2,4.2,0.6c1.2,0.4,0.9,0.2,1.7-0.3c0.8-0.5,2.9-0.9,4-0.9c1-0.1,0.1-0.8-1.1-1s-2.1,0-2.8-0.3
		c-0.7-0.3-1.3-0.5-0.6-0.7c0.7-0.2,0.7-0.6-0.2-0.6c-0.9-0.1-1.7,0.4-2.9,0.1c-1.2-0.3-2.7-0.9-3-1.3c-0.3-0.4,0.4-0.4,0.4-1.6
		c-0.1-1.3-0.1-4.1,0.1-5c0.2-0.9,0.1-1.2,0.6-1.4c0.5-0.2,1,0.5,3,0.9s4.2,0.4,5.7,0.5c1.5,0.1,1.8,1.2,3.4,0.6
		c1.6-0.6,3.4-1.1,4.7-1.4c1.4-0.3,1.6-0.7,1.7,0.4c0.2,1,0.5,2.4,1,3.4c0.5,1,0.6,2.5,0.7,3.6c0.1,1.1,0.4,1.4,0.1,2.4
		c-0.3,1-0.7,1.6-0.3,2.3c0.4,0.6,1.4,1,1.6,0.4c0.2-0.6,3.3-0.6,5.3-0.2c2,0.4,1.9,0,2.9,0.2c1,0.3,2.3,0.5,1.7-0.2
		c-0.6-0.7,1.8-1,3-0.9c1.2,0.1,2-0.2,0.8-0.7c-1.2-0.5-3.3-0.5-5.1-0.8c-1.8-0.3,0.7,0,1-0.5c0.3-0.6-1.5-0.4-2.5-0.4
		c-1.8,0-4-0.2-4.4-0.5c-0.5-0.4-0.5-1.8-1-2.7c-0.5-0.9-0.9-1.7-1.2-2.9c-0.3-1.2-0.8-2.8,0.1-3.7s3-2.2,4.9-3.5
		c1.9-1.3,2-3.4,5.2-5.7c3.2-2.3,5.7-4.1,6.2-8.5c0.6-4.4-0.7-7.2-1.4-9.9c-0.7-2.7-2.1-8.3-1.8-10.5c0.3-2.2,1.2-7.3,2-8.1
		c0.8-0.8,1.6-1.3,2.9-1.2c1.3,0.1,1.3-0.5,2.6,0.4c1.3,0.8,3.2,2.1,4.4,2.8c1.2,0.6,2.6,1.8,1.8-0.4c-0.7-2.2-3-3.5-3.8-3.9
		c0,0-1.2-0.7-1.9-1.4c-0.7-0.7-1.4-1.7-0.6-1.5c0.8,0.3,4.3,1.5,5.5,1.6c1.2,0.2,2.9,0.3,3.6,0.5c0.7,0.2,1.3-0.5,0.3-1.4
		c-1-0.9-4.2-2.9-5.2-3.6C53.7,57.3,52.3,55.8,52.3,55.8z"/>
	<path class="st2" d="M52.3,55.8c-1.4-1.9-1.8-4-5.5-4.6c-3.7-0.6-4.6,0.7-6.1,1.5c-1.5,0.7-4.1,3.5-4.5,4.7
		c-0.3,1.2-0.7,6.8-1.6,10.2c-0.8,3.4-2.3,9.3-2.7,10.4c-0.4,1-0.8,2.3-3.3,2.9c-2.5,0.6-3.4,1.2-6.2,1.3c-2.9,0.1-5.5,1.7-7.8,2.9
		c-2.3,1.3-3.5,2-5.3,3.1c-1.8,1.1-4,2.7-5,3.5c-1,0.8-0.7,1.1-2.7,1.2c-1.9,0.1-3.9,0.4-4.7,0c-0.8-0.4-3-1.9-3.5-2.8
		C-7,89-7.1,89.8-6.9,90.5c0.2,0.7-0.5,0.2-1.2-0.4c-0.7-0.6-0.4,0.8,0,1.6c0.4,0.8-0.2,0.8-0.9,0.1c-0.7-0.7-0.7,0.3-0.3,0.8
		c0.4,0.5-0.2,0.7-0.5,0.3c-0.4-0.4-0.2,0.6,0.4,1.2c0.6,0.6-0.4,0.3-0.8,0c-0.4-0.3,0.2,1,0.7,1.6c0.5,0.6-0.7,0.5-1.2,0
		c-0.4-0.5,0,1.4,0.9,2c0.9,0.7,2.8,1.7,3.5,2.4c0.6,0.7,1.4,2,2.6,3.4c1.2,1.4,1,1.7,1.5,3.4c0.5,1.7,1,3,2.7,3.8
		c1.7,0.8,3.9,1,4,1.6c0.1,0.6,0.3,1.8-0.4,3.2c-0.6,1.4-0.6,2.3-0.9,3.4c-0.3,1.1-0.2,2,0.5,2.7c0.7,0.7,0.4,0.2,0.8,1.4
		c0.5,1.2,1.6,1.9,3,2.1c1.4,0.3,3,0.2,4.2,0.6c1.2,0.4,0.9,0.2,1.7-0.3c0.8-0.5,2.9-0.9,4-0.9c1-0.1,0.1-0.8-1.1-1s-2.1,0-2.8-0.3
		c-0.7-0.3-1.3-0.5-0.6-0.7c0.7-0.2,0.7-0.6-0.2-0.6c-0.9-0.1-1.7,0.4-2.9,0.1c-1.2-0.3-2.7-0.9-3-1.3c-0.3-0.4,0.4-0.4,0.4-1.6
		c-0.1-1.3-0.1-4.1,0.1-5c0.2-0.9,0.1-1.2,0.6-1.4c0.5-0.2,1,0.5,3,0.9c2,0.4,4.2,0.4,5.7,0.5c1.5,0.1,1.8,1.2,3.4,0.6
		c1.6-0.6,3.4-1.1,4.7-1.4c1.4-0.3,1.6-0.7,1.7,0.4c0.2,1,0.5,2.4,1,3.4c0.5,1,0.6,2.5,0.7,3.6c0.1,1.1,0.4,1.4,0.1,2.4
		c-0.3,1-0.7,1.6-0.3,2.3c0.4,0.6,1.4,1,1.6,0.4c0.2-0.6,3.3-0.6,5.3-0.2c2,0.4,1.9,0,2.9,0.2c1,0.3,2.3,0.5,1.7-0.2
		c-0.6-0.7,1.8-1,3-0.9c1.2,0.1,2-0.2,0.8-0.7c-1.2-0.5-3.3-0.5-5.1-0.8c-1.8-0.3,0.7,0,1-0.5c0.3-0.6-1.5-0.4-2.5-0.4
		c-1.8,0-4-0.2-4.4-0.5c-0.5-0.4-0.5-1.8-1-2.7c-0.5-0.9-0.9-1.7-1.2-2.9c-0.3-1.2-0.8-2.8,0.1-3.7s3-2.2,4.9-3.5
		c1.9-1.3,2-3.4,5.2-5.7c3.2-2.3,5.7-4.1,6.2-8.5c0.6-4.4-0.7-7.2-1.4-9.9c-0.7-2.7-2.1-8.3-1.8-10.5c0.3-2.2,1.2-7.3,2-8.1
		c0.8-0.8,1.6-1.3,2.9-1.2c1.3,0.1,1.3-0.5,2.6,0.4c1.3,0.8,3.2,2.1,4.4,2.8c1.2,0.6,2.6,1.8,1.8-0.4c-0.7-2.2-3-3.5-3.8-3.9
		c0,0-1.2-0.7-1.9-1.4c-0.7-0.7-1.4-1.7-0.6-1.5c0.8,0.3,4.3,1.5,5.5,1.6c1.2,0.2,2.9,0.3,3.6,0.5c0.7,0.2,1.3-0.5,0.3-1.4
		c-1-0.9-4.2-2.9-5.2-3.6C53.7,57.3,52.3,55.8,52.3,55.8z"/>
</g>
</svg>
