<?xml version="1.0" encoding="utf-8"?>
<!-- Generator: Adobe Illustrator 19.1.0, SVG Export Plug-In . SVG Version: 6.00 Build 0)  -->
<svg version="1.1" id="Layer_1" xmlns="http://www.w3.org/2000/svg" xmlns:xlink="http://www.w3.org/1999/xlink" x="0px" y="0px"
	 viewBox="-30 32.5 117.5 117.5" style="enable-background:new -30 32.5 117.5 117.5;" xml:space="preserve">
<style type="text/css">
	.st0{fill:#F1F1F2;}
	.st1{fill:#D0D2D3;stroke:#808184;stroke-width:0.5;stroke-miterlimit:10;stroke-dasharray:3,3;}
</style>
<rect x="-30" y="32.5" class="st0" width="117.5" height="117.5"/>
<path class="st1" d="M65.7,99.7c-0.3,0.2-2.2,1.7-2.1,1.4c0.1-0.3,1.2-1.7,0.8-3.7c-0.3-1.2-1.2-2.3-2.1-2.3c-1.1,0,1.6-1.2,2-1.2
	c0.5,0,2.3,0.2,3.1,1.5C68.3,97.1,66.6,99,65.7,99.7z M47.3,100.1c-0.2,0.2-3.9-2.9-4.4-3.3c-1.1-0.9-3.3-5.3-3.6-6
	c-0.1-0.6-2.1-3.3-3.3-3.3c-1.9,1.1-4.6,1.9-5.4,2.3c-3.3,1.4-7.1,2.2-7.2,1.7c0.4-2-0.2-3.2-0.1-4.5c1.6-0.6,2.3-1.2,2.5-1.5
	c0.3-0.2,0.7-0.5,0.8-0.7c0.2-0.3,0.7-0.8,0.5-1.3c-0.2-0.6-0.7-0.8-1.4-1.4c-0.6-0.6-1.2-1.7-2.2-2.7c-0.6-0.7-1.4-1.9-1.9-2.6
	c-0.4-0.6-1.1-2.4-0.7-2.6c0.4-0.2,0.9,0.4,1.7,1.2c0.7,0.7,2.2,3.8,6.1,3.9c7,0.2,5.5-3.2,8.5-2.6c2.8,0.7,0.8,6.8,5.5,15.5
	c0.4,0.8,0.8,2.2,2.1,4.3C45.7,98,47.5,99.9,47.3,100.1z M23.6,92.7c0,0,0.1,0.1,0.1,0.4C23.7,92.9,23.6,92.8,23.6,92.7z M21,86.7
	c-1.1-0.2-7.5-3-8.6-2.9c-0.5,0.1-0.9,0.7-0.8,1.6c0.1,0.8,0.3,1.2,1.5,1.6c1.2,0.4,1.8,0.3,2.9,0.9c1,0.6,1.9,0.9,2.4,1.9
	s1,2,1,3.3c-0.1,1.3,0.2,3.8,0.3,4.4s-0.3,1.2-0.6,0.9c-0.4-0.3-4.2-2.9-7.1-2.6c-0.8,0.1-2.2,0.2-3.1,0.4c-0.9,0.2-2.5,0.6-3.3,0.2
	C-0.2,93.6-4.5,85.7-4,81.5c0.5-4.1,2.6-2.9,5.2-3.6c2.4-0.6,4.2-1.5,4.5-1.7c0.4-0.2,1.2-0.6,1.9-0.6c1.2,0,1.7,1.2,2.1,1.5
	c0.8,0.5,3.1,1,3.8,1.2c0.9,0.4,3.7,1.7,5.1,2.1c0.3,0.1,1.8,0.6,2.2,0.7c0.7,0.2,3.4,2.3,4.2,2.3c-1.1,0.6-0.3,1.4,0.2,1.9
	c0.1,0.2,0.1,0.5,0,0.6c-0.8,0.4-1.1,0.2-1.4,0.4C23.3,86.6,21.8,86.8,21,86.7z M6.4,62.7c0.4-0.7,2.7-3.5,4.2-3.3
	c1.3,0.2,1.3,2.3,1.8,4.1c0.5,1.7-1.6,3.2-2.2,4.5c-0.6,1.2,0.4,2.9-2,3.3c-0.8,0.1-0.9-1.4-1.9-1.2C5.6,70.2,5,68.6,5,67.5
	C5.1,66.2,6,63.4,6.4,62.7z M14,74.9c0.1,0,0.2-0.1,0.4-0.1c0.4-0.1,0.9-0.3,1.5-0.3c0.2,0,0.5,0,0.7,0.1c0.4,0.1,0.5,0.5,0.6,1
	c0,0.1,0,0.1,0,0.1c0.1,0.2,0.1,0.3,0.2,0.4l0.2,0.2l-0.3,0.1c-0.5,0.1-0.8,0.2-1.2,0.2c-0.8,0-1.3-0.3-1.8-0.8
	c-0.1-0.1-0.2-0.2-0.2-0.2c-0.1-0.1-0.1-0.1-0.2-0.2l-0.3-0.2L14,74.9z M18,61.5c0.9-0.9,3.3-2.3,5.4-3.6c-1.5,1.8-4.2,4.1-4.5,6.1
	c-0.2,1.2,0.2,3-0.7,2.8c-0.6-0.5-1.1-1.4-1.1-1.9C17.1,63.9,17.3,62.2,18,61.5z M67.7,95.4c-0.5-1.1-3-2.2-4.1-1.6
	c-1.1,0.5-3,1.6-3.6,1.3c-1.1-0.6-1.8-7.6-5.2-13c-0.8-1.3-3.6-8.9-10-13.4c-2.7-1.9-6-4.4-10.9-4.7c-2.8-0.2-7.5-0.5-14.7,0.2
	c0-1.9,5.3-6.4,4.8-6.9c-0.9-0.9-1.6,0.9-7,2.3c-0.9,0.3-2.6,2-4.2,2c-0.3-0.7-0.3-3.5-2.7-3c-0.5,0.1-2.2,1.6-3.1,2.1
	c-1.3,0.7-2.5,2.7-3.1,3.3c-0.5,0.5-2.1,2.5-2.9,3.1c-4.6,3.3-5.9,7.3-6.3,12c-0.1,2.2,0,12.7,9.8,17.7c0.9,3.3-0.3,20.9-1.1,22
	c-0.9,1.1-3.8,3-4.1,3.8c-0.2,0.9-0.5,1.2,0.4,1.7c1.1,0.6,3,0.3,4.1,0c2.1-0.5,3.4-2.9,3.7-3.5c0.6-1.2,0.4-4,0.7-5.4
	s3.4-18.2,3.6-18.9c1.4,0.3,4.8,0.5,7.3,3.9c0.9,1.2,3.8,14.2,4.4,16.3c0,0.1,0.7,3.1,0.7,3.2s-1.1-2.6-1.1-2.5
	c-0.3,0.3-0.4,0.3-0.8,0.3c-0.8,0.1-3.3,1.2-3.3,2.1c0.1,1.4,3.1,0.8,3.8,0.9c0.4,0.1,1-0.3,1.4-0.4c-0.3,1.5-1.9,2.1-1.8,4
	c0,0.9,1.3,1.1,1.6,1.2c0.5,0.2,3.4-0.1,4-0.3c1.1-0.3,1.7-2.2,1.1-3.4c-0.5-1.1-0.5-3.6-0.6-4.5c-1.3-3.8-3.5-18.3-4.6-23.1
	c1.2,5.1,4.8,22.2,5,22.2c0.5,0,2.2-4.3,3.3-7.1c-0.4-2.5-2.2-7-2.2-9.8c1.4-5.3,1.8-7.5,1.7-9.2c2.3-0.9,3.9-1.8,4.2-2.1
	c2.6,0.6,5.4,8.8,6.8,9.6s8.1,5.4,8,7.2c-0.1,1.8-0.8,8-1.5,8.8c-0.5,0.7-2.6,1-3.1,1.6c-0.8,0.9-0.7,1.5,0.2,1.9
	c1,0.4,5.9,0.6,6.9-0.4s1.8-15,2.3-16.3c0.4-1.2-2.4-2.4-3.2-4.2c-0.9-1.7-2-7.8-2.4-8.9c-0.4-0.9-0.1-5.7-1.7-10.8
	c1.5,1,2.2,9.1,2.3,10.1c0.1,1.1,1.9,7.6,2.3,8.7c0.4,1.2,1.9,2.4,2.5,2.9c0.5,0.4,1.2,1.5,1,2.2c-0.4,1.4-0.5,2.6-0.1,3.1
	c0.2,0.2,2.9,0.8,4.1,0.4c1.3-0.4,5.5-3.9,6.3-4.6C67.9,98.3,68.3,96.8,67.7,95.4z"/>
<path class="st1" d="M14.6,75.5c0.5,0.5,0.8,0.7,1.5,0.7c0.2,0,0.5,0,0.8-0.1c0-0.1-0.1-0.2-0.1-0.3s0-0.1,0-0.2
	c-0.1-0.3-0.2-0.7-0.4-0.7s-0.4-0.1-0.6-0.1c-0.6,0-1,0.2-1.4,0.3h-0.1l0,0C14.5,75.3,14.5,75.4,14.6,75.5z"/>
</svg>
