<?xml version="1.0" encoding="utf-8"?>
<!-- Generator: Adobe Illustrator 19.1.0, SVG Export Plug-In . SVG Version: 6.00 Build 0)  -->
<svg version="1.1" id="Layer_1" xmlns="http://www.w3.org/2000/svg" xmlns:xlink="http://www.w3.org/1999/xlink" x="0px" y="0px"
	 viewBox="-30 32.5 117.5 117.5" style="enable-background:new -30 32.5 117.5 117.5;" xml:space="preserve">
<style type="text/css">
	.st0{fill:#F1F1F2;}
	.st1{fill:#D0D2D3;stroke:#808184;stroke-width:0.5;stroke-miterlimit:10;stroke-dasharray:3,3;}
</style>
<rect x="-30" y="32.5" class="st0" width="117.5" height="117.5"/>
<path class="st1" d="M43.8,78.8c-5.5,2.6-10.7,4.2-16.6,5.7c0.5-3-0.4-6.3,0-9.4c1.1-2.9,1.2-7,1.9-10.1c1.4-7.1,5.3-12.7,12.5-14.6
	c8.1-2.2,12,6.1,12.4,12.5C54.4,69.2,48.6,75.5,43.8,78.8z M-7.3,90.5L-7.3,90.5L-7.3,90.5z M66.1,116.9c0-2.5-4.6-3.2-6.3-4.2
	c-1.8-1-2.9-2.4-4.3-3.8c-0.7-0.8-4.6-2.6-4.8-2.9c-1.5-3.2-0.1-7-0.1-10.4c0-2.5-0.3-5.6-1.8-7.7c-0.6-0.9-3.2-2.6-3.1-3.5
	c0.3-2.3,4.4-4.9,5.9-6.7c3.2-4,5.2-8.7,5.5-13.8c0.6-9.3-6.6-17.6-16.3-15.9c-8.8,1.5-13.1,10.5-15,18.3c-0.9,3.8-0.9,7.8-1.2,11.6
	c-0.2,2.6,0.8,7-1.8,7.6c-3.7,0.9-7.5,1-11.1,2.4c-4.1,1.5-4.2-0.2-6.5-3c-3.9-4.8-14,0.9-12.6,5.4c-1.2,1.2-1.6,3-1,4.5
	c0.8,2.2,5.2,0.9,7,1.4c1.9,0.5,1.2,3.9,1.8,5.5c0.7,2.1,3.8,5.3,3,7.8c0.5,4.5-0.2,9.9-0.9,14.4c-0.2,1.3-0.5,3.8-1.9,4.6
	c-0.4,0.2-6.8,0.6-5.6,2.2c0.5,0.8,5.4,0.4,6,0.3c2.4-0.3,4-2,4.8-4.3c2-5.2,4.1-12.3,3.6-17.8c2.1,1.6,5.2,2.3,6,4.9
	c0.9,2.8,2.3,5.4,3.1,8.3c0.6,2.4,2.3,5,2.3,7.4c0,2.9-4.7,1.1-4.4,2.9c0.1,0.7,4.6,0.9,5,0.9c3.1,0,3.7-5,3-7.5
	c-0.5-6.1-1-13-4.3-18.2c2.4,0,4.8-0.5,7-1.4c1.9-0.8,3.7-1.9,5.2-3.2c0.8-0.7,3.2-4.8,4.2-4.7c0.4,0.1-3.7,7.4-4.2,8.3
	c-1.6,3,1,8.1,2.1,10.9c0.9,2,5.1,6.1,5.1,8.2c0,1.5-3.4,0.8-3.9,0.6c-1.5-0.7-1.8,1.1-2.9,0.9c-3.9-0.8-4.5,1.7-1.4,2.3
	c2.8,0.6,8.1,0.5,10.8-0.5c9-3.2-7.1-16.5,0-22.3c2,4.9,7.1,7.3,11.5,10c3.1,1.9,13.6,2.9,7.3,9.2c-1,1-4.1-0.7-4.4,1.8
	c-0.2,1.3,4.4,1.2,4.8,1c1.5-0.8,4.1,1.2,3.9-1.5C64.9,123.8,66.5,120.4,66.1,116.9z"/>
</svg>
