<?xml version="1.0" encoding="utf-8"?>
<!-- Generator: Adobe Illustrator 19.1.0, SVG Export Plug-In . SVG Version: 6.00 Build 0)  -->
<svg version="1.1" id="Layer_1" xmlns="http://www.w3.org/2000/svg" xmlns:xlink="http://www.w3.org/1999/xlink" x="0px" y="0px"
	 viewBox="-30 32.5 117.5 117.5" style="enable-background:new -30 32.5 117.5 117.5;" xml:space="preserve">
<style type="text/css">
	.st0{fill:#F1F1F2;}
	.st1{fill:#D0D2D3;stroke:#808184;stroke-width:0.5;stroke-miterlimit:10;stroke-dasharray:3,3;}
</style>
<rect x="-30" y="32.5" class="st0" width="117.5" height="117.5"/>
<path class="st1" d="M55.7,96.9L54,89.4c0.8-0.2,1.6-0.6,2.3-0.8c0.5-0.2-0.1,3.3,1.2,5.4c0.9,1.5,2.3,2.2,3.4,2.6l1,5.7L55.7,96.9z
	 M76.4,114.7l-12.6-10.8l-0.7-7.5c0.8-1,2.5-3.3,2.5-4.8c0-4-3.5-5.8-3.5-5.8v-2c0,0,0.2-3.3,0-4c-2-6-5.1-13.5-10-15.9
	c-4-2-8,4-8,4l-43.8-10c-8-2-8,4-6,6c0,0-10-2-10,4c0,4,4,8,10,8c8,0,21.9-2,21.9-2s-10,2-10,6c0,3.4,6.6,7.6,15.7,8.9l-23.9,14
	l-5.7,2.9l-9.8,1.3v0.7l11.9-0.7l6-3l28.2-14.9c0.8,0,1.7,0,2.5-0.1l3.7,22.9L30,128.5l-4.4,5.8h1.6l4-4l6.1-18.4l-3.1-23.2
	c3.3-0.5,6.7-1.4,10.1-2.9c0,0,1.2,1.2,2.9,2.3V98l16.3,26.5l6.3,2.1l0.6-0.9l-5.6-2.8l-15-25.4l0.8-7.9l0,0l2.6,8.7l9.3,7.6
	l1.8,10.4l0.1-6.5l-0.2-2.6l11.6,9.5h6.3v-1.3L76.4,114.7z"/>
</svg>
