<?xml version="1.0" encoding="utf-8"?>
<!-- Generator: Adobe Illustrator 19.1.0, SVG Export Plug-In . SVG Version: 6.00 Build 0)  -->
<svg version="1.1" id="Layer_1" xmlns="http://www.w3.org/2000/svg" xmlns:xlink="http://www.w3.org/1999/xlink" x="0px" y="0px"
	 viewBox="-30 32.5 117.5 117.5" style="enable-background:new -30 32.5 117.5 117.5;" xml:space="preserve">
<style type="text/css">
	.st0{fill:#F1F1F2;}
	.st1{fill:#D0D2D3;stroke:#808184;stroke-width:0.5;stroke-miterlimit:10;stroke-dasharray:3,3;}
</style>
<rect x="-30" y="32.5" class="st0" width="117.5" height="117.5"/>
<path class="st1" d="M69.3,72.5c0-1.2-0.5-3-1.1-4.4c-0.7-1.3-1.8-2.9-2.5-4.2c-0.5-1.1-0.2-2.3-0.5-3.4c-0.3-1.3-1.1-2.1-2-2.9
	c-0.7-0.6-1.7-1-2.8-1.3c-1.6-0.4-4-0.3-5.4,0.4c-2.9,1.5-3.8,3.9-5.6,7.5c-0.7,1.4-1,2.9-1.7,4.4c-0.7,1.6-1.2,3.2-2,4.7
	c-1.6,2.8-0.6,2.1-3.3,3.9c-2.7,1.9-8.6,4.8-11.7,6.2c-1.7,0.7-3.3,1.7-4.8,2.7c-1.7,1.1-3.3,1.7-5.3,2.3c-4.3,1.4-8.6,2.9-13,4.1
	c-6.5,1.7-14.3,0.8-20,4.8c0,0,0.7,1.3,0.7,1.4c-0.1-0.2-2,0.4-2.3,0.5c-0.7,0.5-1.9,2-1.1,2.8c1.4,1.3,4.9,1.4,6.6,1.8
	c-0.1,0.2-0.4,0.9-0.6,0.9c-4,0.9-11.7,1.5-13.6,6c2.4,2.3,7.2,1.2,10,0.6c4.7-0.9,9.2-2.2,14-3c1.8-0.3,3.7-0.3,5.4,0.4
	c1.1,0.4,2.4,1.7,3.5,1.9c0.7,0.1,1.5,0.3,2.2,0.3c1.2,0,2.6-0.8,3.7-0.2c0.8,0.5,1.4,1.3,2.3,1.6c1,0.3,2.3,0.1,3.3,0
	c1.3-0.1,5.9-0.4,6.7,0.7c0.5,0.7,0.1,2.7,0.2,3.5l0.3,2.3c0.1,0.4,2,1.1,2.3,1.3c0.9,0.6,1.5,1.2,2.3,2l0.9,0.9l-1.3,1.1
	c-0.6,0.4-1.5,1-1.9,1.6c0.8,0.4,2.2-0.2,3.1-0.3c1.4-0.2,1.5-0.2,2.6,0.8c0.9,0.9,1.3,1.9,2.6,2.2c0.8,0.2,2,0.7,2.7,0.5
	c-0.5-0.5-1.4-2.7-2-2.9c2.7,0.7,4.8,1.4,9.6,2.1c0.4,0.1-0.4-0.4-0.1-0.5c-3.2-2-4.5-1.9-6.1-2.7c-1.2-0.6-1.6-1.1-2.7-1.4
	c0,0-1.8-1-1.9-1c-0.7-0.2-1.9-2.6-2.3-3.2c-1-1.4-1.4-3.4-0.4-5c1.9-3,5.1-3.4,8.2-4.3c3.5-1.1,7.2-3.3,10.1-5.4
	c1.5-1.1,2.5-2.8,3.7-4.2c4.1-5,4.8-12.3,3.6-18.5c-0.5-2.7-1-5.3-1.3-8.1c-0.1-1.3,0.1-3.2,1.1-4.2c1.5-1.3,2.3-0.7,3.7,0.2
	C65.8,70.2,68.8,72.2,69.3,72.5z"/>
</svg>
